<?xml version="1.0" encoding="utf-8"?>
<!-- Generator: Adobe Illustrator 25.0.0, SVG Export Plug-In . SVG Version: 6.00 Build 0)  -->
<svg version="1.1"
	 id="图层_1" xmlns:inkscape="http://www.inkscape.org/namespaces/inkscape" xmlns:sodipodi="http://sodipodi.sourceforge.net/DTD/sodipodi-0.dtd" xmlns:svg="http://www.w3.org/2000/svg"
	 xmlns="http://www.w3.org/2000/svg" xmlns:xlink="http://www.w3.org/1999/xlink" x="0px" y="0px" viewBox="0 0 400 450"
	 style="enable-background:new 0 0 400 450;" xml:space="preserve">
<style type="text/css">
	.st0{fill-rule:evenodd;clip-rule:evenodd;fill:#CD302B;}
</style>
<sodipodi:namedview  bordercolor="#666666" borderopacity="1.0" height="500px" id="namedview61" inkscape:current-layer="图层_1" inkscape:cx="49.994374" inkscape:cy="257.6046" inkscape:pagecheckerboard="0" inkscape:pageopacity="0.0" inkscape:pageshadow="2" inkscape:window-height="1367" inkscape:window-maximized="1" inkscape:window-width="2160" inkscape:window-x="0" inkscape:window-y="36" inkscape:zoom="1.3101474" pagecolor="#ffffff" showgrid="false">
	</sodipodi:namedview>
<g id="g58" transform="matrix(2.2472343,0,0,2.2472343,-467.6157,-722.78142)">
	<g id="g56">
		<path id="path54" class="st0" d="M386.3,406.3c-0.2-1.7-0.3-3.4-0.5-5.1c-0.6-3.5-1.3-7.4-2.1-10.5c-0.1-1.1-0.2-2.1-0.3-3.2
			c-0.5-2.1-1.5-4.3-2.2-6.1c-3.1-7.7-6.6-14.1-11-20.4c-5.4-7.7-12-14.2-19.6-19.7c-14.2-10.1-30.8-17.3-55.2-17.3
			c-3.3,0.3-6.5,0.6-9.8,0.9c-7.4,1.6-14.1,2.8-20.4,5.4c-18.6,7.6-32.7,20-42.7,36.1c-1.7,2.8-3.7,5.8-5,8.9
			c-1.6,3.8-3.1,7.5-4.4,11.5c-0.7,2.7-1.3,5.4-2,8.1c-0.2,0.4-0.4,0.8-0.7,1.3c-1.1,3.1-0.8,6.7-1.3,10.2
			c-0.8,4.9-0.4,11.5,0.3,16.1c0.4,2.2,0.3,4.2,0.8,6.2c0.3,0.9,0.7,1.7,1,2.6c1.5,5.7,2.9,11,5,15.9c1.3,3,2.6,6,4.2,8.6
			c0.5,0.8,0.9,2.7,2,2.9c6.6-5.2,13-8.1,22.7-10.3c1.9-0.4,7-0.8,9.2-0.4c1.3,0,2.6,0.1,3.9,0.1c0.2-0.1,0.3-0.2,0.4-0.4
			c0-16.9,0-33.9,0.1-50.8c0-4.8,0-9.6-0.1-14.4c-0.2-1.3,0.3-2.8-0.1-3.7c-0.1,0-0.3,0-0.4-0.1c-1.6,1.3-3.3,2.5-5.1,3.7
			c-0.3,1.2-0.1,2.8-0.1,4.3v51.5c0,1.5,0.2,3.7-0.3,4.7c-2.4,0.5-5.8-0.4-8.6,0c-5.1,0.8-9.2,1.6-13.4,3.1
			c-1.4,0.5-5.4,2.9-6.5,2.3c-1.1-2.6-2.2-5.3-3.3-7.9c-1.9-4.8-2.9-10.2-3.9-15.8c-0.1-1.5-0.2-3.1-0.3-4.6
			c-0.4-2.6-0.8-7.3-0.3-10.2c0.5-2.9,0.1-5.5,0.6-8.3c1.1-5.6,2.1-11,4-15.7c1.9-4.9,3.6-9.7,6.3-13.9
			c11.1-17.6,25.8-30.6,47.5-37.7c5-1.6,10.3-2.1,16-3.1c1.8-0.1,3.6-0.2,5.5-0.3c1.7,0,3.4,0,5.1,0.1c2.2,0.4,4.4,0.1,6.3,0.5
			c2,0.3,4.1,0.5,6.1,0.8c5.6,1.2,10.9,2.8,15.7,4.8c16,6.6,27.9,16.7,37.1,30.1c2.3,3.3,4.9,7.1,6.5,11c1.9,4.8,3.7,9.7,5.3,14.9
			c0.5,1.7,0.5,3.4,0.9,5.3c3,13.9,1,30.9-3.3,41.9c-1.1,2.8-2.7,8.3-4.5,10.1c-1.2,0-1.8-0.7-2.6-1.1c-1.4-0.6-2.9-1.3-4.3-1.9
			c-4.4-1.7-8.8-2.5-14.2-3.5c-1.6-0.3-8.2,0-8.7-1.1v-47.5c0-5.3,0.5-11.2-0.6-15.7c-1.4-6-4.8-11.2-9.1-14.5
			c-5.8-4.4-16-8.1-26.3-5.6c-2.5,0.6-4.9,1.7-7.1,2.6c-1.6,0.7-6.9,3.8-7.4,5.2v7c0.1,0,0.1,0,0.2,0.1c0.1,0,0.3,0,0.4,0.1
			c1-0.7,2-1.4,2.9-2.1c2.5-1.5,5.3-2.5,8.5-3.4c4.2-1.2,9.3-0.1,12.7,0.9c5,1.5,11.3,6.1,13.1,10.7c1.8,4.5,1.1,12.3,1.1,18.3
			c0,16.8,0,33.6,0.1,50.5c1,0.6,4,0.1,5.6-0.1c3.1-0.4,6.6,0.1,9.1,0.5c1.1,0.1,2.2,0.2,3.3,0.3c7.8,1.7,14.6,4.3,20.3,8.1
			c1.4,1,2.7,2.1,4.1,3.1c1.2-0.3,1.9-2.4,2.5-3.4c1.8-3,3.4-6.1,4.9-9.5c1.3-3.1,2.8-6.5,3.8-9.9c0.1-1.1,0.3-2.2,0.4-3.3
			c0.8-3.6,1.5-7.7,2.2-11.5c0.2-3.3,0.4-6.6,0.7-9.9C386.5,411.3,386.4,408.8,386.3,406.3L386.3,406.3z M296.4,339.9
			c0.8-0.3,1.6,0.1,2.2-0.5c0-0.6-0.1-0.7-0.3-1h-0.1c-0.2,0-0.4,0-0.6-0.1c-1.6,0.7-4,0-5.7,0.4c-0.1,0.2-0.3,0.4-0.4,0.6
			c0.4,1,1.4,0.5,2.4,0.7c1.4,1,0.5,6.4,0.9,8.2c0.1,0.1,0.2,0.2,0.3,0.3c0.2,0,0.4,0,0.6-0.1C297.2,347.5,294.8,340.7,296.4,339.9z
			 M306,339.7c0-0.2,0-0.4-0.1-0.5c-0.4-0.8-3.5-0.6-4.7-0.6c-0.2,0.1-0.3,0.2-0.5,0.4c-0.4,0.5-0.8,8.3-0.7,8.9
			c0.6,0.5,5,1.3,5.5,0.5v-0.6c-0.5-0.9-3-0.3-3.9-0.9c-0.2-0.6-0.3-2,0.1-2.5c0.5-0.7,2.5-0.1,3.4-0.3c0.2-0.2,0.2-0.3,0.3-0.7
			c-0.1-0.2-0.1-0.3-0.3-0.4c-1.6-1-4.2,1.1-3.3-2.5C303.3,339.5,304.7,340.6,306,339.7L306,339.7z M287,348.3
			c-3.7,0.8-2.6-6.2-3.9-8.1c-0.2,0-0.5-0.1-0.7-0.1c-0.2,0.1-0.4,0.3-0.5,0.4c0,1.1,0.4,2,0.6,2.9c0.5,2.6,0.8,6.9,4.3,6.2
			c3.9-0.7,3.8-3.4,3-7.1c-0.2-1.2-0.2-2.5-0.8-3.3c-0.2,0-0.5-0.1-0.7-0.1c-0.1,0-0.2,0.1-0.3,0.1C287,341.3,291.1,347.3,287,348.3
			z M279,340.7c-1.7,1-4.4,1-6,2v0.7c0,0.1,0.1,0.2,0.1,0.3c1,0.2,1.2-0.4,2.3-0.5c1.9,1,1.5,6.3,3.2,7.9c0.2,0,0.4,0,0.6-0.1
			c0.2-0.1,0.3-0.2,0.4-0.4c0.4-1.5-2.6-6.2-2.1-7.7c0.4-0.7,1.7-0.8,2.3-1.3v-0.5c-0.1-0.1-0.2-0.3-0.3-0.4H279z M321.2,342.3
			c-2,0.9-3.4,1.6-4.3,3.6c-1.3,3.3,0.6,6.1,3.5,6.7C326,353.6,328.4,342.7,321.2,342.3L321.2,342.3z M320.4,351.3
			c-3.4-0.6-2.7-5.4-0.7-6.9c0.5-0.4,1-0.5,1.7-0.7C326.3,343.8,324.1,351.9,320.4,351.3z M270.4,343.7c-0.1,0.1-0.3,0.2-0.4,0.3
			c0,0.2-0.1,0.4-0.1,0.7c0.8,2,1.9,4,2.7,6c0.3,0.8,0.3,1.9,1.1,2.3h0.7c0.2-0.1,0.2-0.1,0.3-0.3c0.3-0.7-0.4-1.6-0.7-2.2
			C273.3,349,271.8,343.7,270.4,343.7z M268.3,345.3c-0.1-0.2-0.2-0.3-0.3-0.5h-0.6c-1.5,1-4.6,2-5.7,3.2c0,0.2,0,0.4,0.1,0.5
			c0.1,0.3,0.2,0.2,0.5,0.4c0.8-0.2,1.3-1.2,2.3-0.9c1.7,0.8,2.7,6.4,4.2,7h0.7c0.1-0.1,0.2-0.3,0.3-0.4c0-2-3.8-5.6-3.5-7.6
			C266.8,346.5,268.5,346.2,268.3,345.3z M330.6,347.5c0.9,0.4,1.9,1.5,3,1.3c0.1-0.2,0.3-0.4,0.4-0.5c-0.4-0.9-3.4-2.5-4.7-2.5
			c-0.7,1-4.2,7.4-4.2,8.4c0.1,0.2,0.1,0.3,0.3,0.4c0.2,0.2,0.6,0.2,0.9,0c0.9-0.6,0.9-3,1.9-3.3c1.2-0.4,2,1.5,3.1,1.3
			c0.3-0.1,0.3-0.1,0.5-0.3c0-0.2,0-0.4-0.1-0.6c-0.5-1-2.1-0.8-2.6-1.7C328.5,349.1,329.7,347.5,330.6,347.5L330.6,347.5z
			 M260.2,350c0-0.2,0-0.4-0.1-0.5c-0.1-0.3-0.2-0.3-0.6-0.4c-1.9,1-5.4,3.7-2.1,5.8c1.7,1.1,4.8-1.1,5.7,1c0.7,1.9-2.3,2.4-3.1,3.1
			c0,0.5,0.1,0.6,0.3,0.9h0.1c2,0.5,5.4-3.2,3.7-5.3c-1.8-2.3-5.4,0.3-6.3-1.6C256.9,351.4,259.5,350.6,260.2,350z M253.8,360.9
			c0.8,0.2,1.7,0.5,2.5,0.7c0.6,0.2,1.8,0.6,2.3,0.1c0.7-0.7-0.5-1.8-0.9-2.1c-1-1.1-4-5.6-5.6-5.6c-0.1,0.1-0.2,0.1-0.3,0.2
			c-0.1,0.2-0.1,0.3-0.1,0.5c0.4,1.7,4.2,3.5,4,5.2c-1.9,0.6-6.6-3.7-8.7-1.3c0,0.1,0,0.1,0.1,0.2c0.3,1.2,3.8,4.5,4.7,5.6
			c0.4,0.5,0.9,1.8,1.9,1.4c0.8-0.5,0-1.4-0.3-1.8c-0.7-0.7-3.8-3.4-3.4-4.4C251.5,359.5,252.7,360.4,253.8,360.9L253.8,360.9z
			 M339.9,363.9c0.1,0.5,0.4,0.6,1,0.7c2.2-1.1,3.3-4.8,5.5-6.1c0.8,0.3,1.3,0.8,1.9,1.3c0.2,0,0.4,0,0.7-0.1
			c0.1-0.1,0.2-0.2,0.3-0.3c-0.1-0.8-4.8-4.8-5.7-4.8c-0.1,0.2-0.2,0.3-0.3,0.5c0.2,1.3,1.6,1,1.8,2.5c-1.3,1.6-2.6,3.1-3.9,4.7
			C340.8,362.7,339.8,363.1,339.9,363.9L339.9,363.9z M275.3,367c0,7.5,0,15-0.1,22.5c0,21,0,42-0.1,63.1c0.4,1,1.5,1.2,2.3,1.7
			c1.8,1.1,3.7,2.2,5.5,3.3c0.7,0.5,1.3,1.4,2.3,1.5c0.1-0.1,0.2-0.1,0.3-0.3c0.3-0.5,0-5.9,0-7.2v-84.1c0-2.3,0.4-5.4,0-7.3
			c-0.2-0.2-0.2-0.3-0.5-0.3c-2.3,1.8-4.8,3.5-7.2,5.3C277.1,365.5,275.7,366.1,275.3,367L275.3,367z M350.4,360.9l-4.5,4.5
			c-0.6,0.5-1.9,1.2-2,2.1c0.3,0.6,3.2,3.7,3.9,3.8c1.8-1-2.1-2.5-1.9-4c0.4-0.5,1.7-2.2,2.7-1.5c0.6,0.5,1.1,2.1,2.1,1.9
			c0.3-0.1,0.4-0.1,0.5-0.4c0.2-1-1.5-2-2.1-2.5c0-1.1,0.9-2,2-2c1.1,0.6,1.4,2.2,2.9,2.3c0.1-0.1,0.3-0.2,0.4-0.3
			c0-0.2,0-0.4-0.1-0.5C354,363.5,351.3,360.9,350.4,360.9z M251.4,368.2c1-0.6-0.1-1.6-0.5-1.9c-1.2-0.9-5.1-5.2-6.5-5.2
			c-0.2,0.2-0.6,0.4-0.4,0.9c1.8,1.6,3.6,3.2,5.3,4.9C249.8,367.3,250.5,368.5,251.4,368.2L251.4,368.2z M355.2,368.2
			c-0.5,0.1-1,0.2-1.5,0.3c-1.8,0.7-3.5,2.2-3.9,4.3c-0.3,1.7,2.3,6,3.2,4.8c0-0.2,0.1-0.3,0.1-0.5c-0.6-1.1-1.6-1.6-1.9-3
			c-0.5-2.5,2.9-5.1,5.3-4.2c1.5,0.5,1.7,2.3,2.7,2.9h0.5c0.8-0.4,0-1.5-0.3-1.9C358.5,369.7,357.4,368.2,355.2,368.2L355.2,368.2z
			 M263.3,375.6v68.3c0,1.2-0.3,4.4,0.1,4.9c0.7,1,2.7,0.9,4,1.3c0.8,0.2,2,1.2,2.9,0.9c0.1,0,0.2-0.1,0.3-0.1v-80.2
			c-0.1-0.2-0.1-0.2-0.4-0.3C269,371.2,263.7,374.6,263.3,375.6z M244,376.6c-0.3-0.5-3-2.1-3.6-2.4c-0.8,0.1-1.9,1.6-1.9,2.5
			c0.2,0.3,0.4,0.5,0.7,0.4c0.5-0.2,0.8-0.8,1.2-1.1c4,0.5,1.2,5.4-2.2,4.4c-3.8-1.1-3.9-4.8-1.4-7.3c0-0.3,0-0.6-0.1-0.9
			c-0.1,0-0.1,0-0.2-0.1c-0.2,0-0.4,0-0.5-0.1c-3.3,3.6-3.2,8.2,2.1,9.8C240.5,382.7,244.9,378.7,244,376.6L244,376.6z M324.4,386.6
			c-2.5-8.6-10-13.5-21-13.5c-1.6,0.6-3.5,0.5-5.1,1c-2.4,0.8-4.6,2.2-6.4,3.6c-0.4,0.3-0.7,0.6-1.1,0.9c-0.3,0.6-0.2,3.3,0.1,3.6
			c0.5,0.3,1.5-0.3,1.9-0.5c1.6-0.8,3.4-1.4,5.3-1.9c7.9-2,16.3,2,17.7,7.9c0,16.5,0,33,0.1,49.5V449c0,1.4-0.5,3.6,0.5,4
			c1.9-0.6,3.9-1.2,5.8-1.9c0.7-0.2,1.9-0.2,2.2-0.7c0.5-0.7,0.3-6.8,0.3-8.3v-44.4C324.8,394.2,325.3,389.5,324.4,386.6z
			 M362.2,375.1c-0.1-0.1-0.3-0.3-0.4-0.4h-0.7c-2.3,1.8-5.6,2.7-7.7,4.7c0,0.2,0,0.4,0.1,0.6c0.1,0.2,0.3,0.3,0.4,0.5
			c1.6,0,2.5-2.2,3.9-1.6c0.5,0.2,2.2,2.8,1.9,3.5c-0.6,1.1-2.5,1.4-3.4,2.3c0,0.5,0.1,0.7,0.3,0.9c1.3,0.4,5.8-2.8,7-3.5
			c0.7-0.4,1.5-0.5,1.6-1.5c-0.1-0.2-0.1-0.3-0.3-0.4c-1.1-0.7-2.3,1.3-3.7,1.3c-0.5-0.2-2.3-3-2-3.7
			C359.9,376.6,362.5,376.8,362.2,375.1L362.2,375.1z M239.6,385.7c0-0.1,0-0.3,0.1-0.4c-0.4-0.6-7.6-3.9-8.7-4
			c-0.4,0.2-0.5,0.3-0.7,0.7c0.7,1.8,5.9,1.8,5.7,3.5c-0.8,0.3-1.9,0.2-2.9,0.3c-1.7,0.3-3.7,0.5-5,1.3c0,0.3-0.1,0.5-0.1,0.8
			c0.4,0.8,1.4,0.8,2.3,1.2c1.4,0.7,4.9,2.6,6.5,2.7c0.1-0.1,0.2-0.1,0.3-0.3c0-0.2,0.1-0.4,0.1-0.7c-0.9-1.4-4.5-1.6-5.9-2.9
			c0-0.3,0.1-0.4,0.1-0.5C233.5,386.9,238.8,387.3,239.6,385.7L239.6,385.7z M291,390.7c0.9-0.4,1.4-1.3,2.2-1.8
			c2.5-1.6,6.9-1.4,8.7,0.8c2,2.5,1.1,10.9,1.1,15.4c0,13.2,0,26.5-0.1,39.7c0,3.6,0,7.3,0.1,10.9c0,1.2-0.3,3.8,0.1,4.5
			c0.1,0,0.1,0,0.2,0.1c1.8-0.6,4.3-2.7,5.9-3.7c0.7-0.4,1.8-0.7,2.1-1.5c0-6.6,0-13.2,0.1-19.8V401c0-5.4,0.6-11.8-1.7-14.9
			c-1.8-2.5-5.1-3.4-9.5-3.4c-1.1,0.2-2.2,0.4-3.3,0.5c-1.9,0.5-6.5,2.2-6.1,4.3C291.1,388.6,290.3,390.1,291,390.7L291,390.7z
			 M363.8,390.2c0.9-1.1,3.7-3.8,3.3-5.5c-0.2-0.1-0.4-0.3-0.5-0.4c-0.2,0-0.4-0.1-0.6-0.1c-2,1.2-6.9,2.2-8.2,3.7
			c0,2.5,5.5-1.3,6.6-1.5c0.7,0.5-0.2,1.5-0.6,1.9c-0.6,0.7-4,4.6-3.7,5.5c0.1,0.3,0.3,0.4,0.5,0.5c0.8,0.2,1.7-0.3,2.3-0.5
			c1.6-0.6,5.5-1.9,6.5-3.1c0-0.5-0.1-0.5-0.3-0.8H369c-0.9-0.4-3.8,1.4-4.7,1.8c-0.3,0.1-1.4,0.7-1.7,0.2
			C362.4,391.2,363.6,390.5,363.8,390.2L363.8,390.2z M233.4,395.1c0.8-0.4,2.1-0.2,2.8-0.7c0.1-0.4,0.1-0.7-0.1-1.1
			c-0.4,0-0.8-0.1-1.3-0.1c-2.9,0.3-5.7,0.7-8.6,1c-0.2,0.3-0.7,0.8-0.5,1.4c0.4,0.9,5.2,3.5,6.3,4.2c0.7,0.5,1.8,1.7,2.7,0.9
			c0-1.6-1.6-1.9-2.4-2.7C232.3,397,232.7,395.4,233.4,395.1L233.4,395.1z M231.2,397.3c-1.4,0-2.4-0.9-3.1-1.6c0-0.2,0-0.4,0.1-0.5
			c0.1,0,0.1,0,0.2-0.1c0.1,0,0.2-0.1,0.3-0.1c0.9,0,2.2-0.1,2.9,0.3c0.1,0.1,0.1,0.2,0.2,0.3C231.7,396.4,231.6,396.8,231.2,397.3
			L231.2,397.3z M366.1,395c-1.8,0.8-3.1,1-4.1,2.6c-1.8,3.1,0.9,6,3.7,6.5C372.8,405.1,374.3,394.8,366.1,395z M364.8,402.4
			c-2.2-0.8-2.8-3.6-0.7-5c0.7-0.5,1.6-0.5,2.5-0.9c1.9-0.1,4.2,1,4,2.8C370.5,401.4,367.5,403.3,364.8,402.4z M223.8,407.3v0.8
			c0.1,0,0.1,0,0.2,0.1c1.2,0.5,4.2-1.9,5.3-2.2c1.5-0.4,2.9,0.5,4.3,0.1c0.3-0.4,0.5-1-0.1-1.4c-0.9-0.6-2.8,0-3.9-0.4
			c-1.6-0.6-3.3-3.3-5.1-3.3c-0.1,0.2-0.2,0.3-0.3,0.5c0.4,2.1,3,1.7,3.8,3.3C227.4,406.4,224.5,405.7,223.8,407.3z M372.1,405.3
			c-0.2,0-0.5,0-0.7-0.1c-2.2,1.1-6,0.3-8.3,1.1c-0.5,1-0.2,4.4,0.3,5.3c0.2,0.1,0.5,0.2,0.8,0.1c0.1,0,0.2-0.1,0.3-0.1
			c0.3-1.1-0.8-2.8-0.1-3.6c1-1.4,6.9-0.1,8.3-1.5C372.7,405.7,372.5,405.4,372.1,405.3L372.1,405.3z M223.6,416.8
			c0,0.2,0.1,0.4,0.1,0.7c0.6,0.4,8.8,0.9,9.5,0.3c0.4-0.3,0.2-0.9,0-1.2c-2-0.5-4.8,0.3-6.5-0.1c0-0.1,0-0.1-0.1-0.2
			c0.5-2,6.8-2.7,6.9-5.2c-0.1-0.3-0.2-0.5-0.5-0.7c-3-0.1-5.9-0.1-8.9-0.2c-0.2,0.2-0.3,0.2-0.5,0.5c0,0.2,0,0.3-0.1,0.5
			c0.1,0.2,0.2,0.3,0.3,0.5c1.6,0.4,5-0.5,6.2,0.2v0.3C229.7,413.5,224.4,414.8,223.6,416.8L223.6,416.8z M367.2,412.7
			c-2.2,0.8-3.7,1.4-4.3,3.7c-0.8,3.4,3.9,6.3,7.4,4.9C375.4,419.4,373.6,412.5,367.2,412.7z M370.5,419.6c-2.2,1.3-7.2-0.2-6.3-2.9
			c0.5-1.6,1.6-1.9,3.1-2.5C371.2,414.1,374,417.5,370.5,419.6L370.5,419.6z M227.2,426.1c1.4,0.3,6.5,1.6,7.5,1.1
			c0.1-0.3,0.1-0.5,0.1-0.8c-0.6-0.7-2.4-0.4-2.9-1.1c-0.4-0.4-0.6-1.8-0.7-2.5c0.6-1.1,2.6-1.2,2.7-2.7c-0.1-0.2-0.3-0.4-0.4-0.5
			H233c-1.3,0.9-7.9,3.6-8.3,4.5c-0.3,0.5-0.1,1.3,0.3,1.6C225.8,425.7,226.5,425.9,227.2,426.1L227.2,426.1z M229.1,422.9
			c0.7,0,0.9,0.1,1.3,0.3c0.1,0.4,0.2,0.6,0.2,1.2c-0.1,0.2-0.2,0.4-0.4,0.5c-0.6,0.4-2.9,0.1-3.3-0.5
			C226.7,423.7,228.5,423.2,229.1,422.9z M371.8,428.3c0.1-3.6-2.4-5.3-6.2-5.3c-0.6,0.3-1.2,0.4-1.7,0.7c-1.4,1-3.2,4.3-1.9,6.5
			c0.6,0.2,3.3,1.1,4,0.9c1-0.3,1.2-2.6,0.7-3.2c-0.2,0-0.4,0-0.5,0.1c-1.1,1.6-2,2-3.4,0.3c0-3.6,4.9-5.1,7-2.5
			c0.5,0.6,1.2,2,0.8,3.3c-0.2,0.6-0.9,1.1-0.7,1.9c0.1,0.2,0.2,0.2,0.4,0.4c0.2,0,0.4-0.1,0.6-0.1
			C371.6,430.6,371.8,429.7,371.8,428.3L371.8,428.3z M228.2,438.5c1.6,0,8.5-2.1,9.2-2.9c0-0.2-0.1-0.5-0.1-0.7
			c-1.5-0.7-4.8,1.4-6.7,1.7c-0.1-0.1-0.2-0.1-0.3-0.2v-0.3c1.1-1.3,5.3-4.8,5.3-6.5c-0.2-0.2-0.3-0.4-0.5-0.6h-0.6
			c-0.6,0.3-1.3,0.3-2,0.5c-2.2,0.7-4.3,1.4-6.5,2.1c-0.1,0.2-0.2,0.5-0.1,0.7c0.1,0.1,0.1,0.2,0.2,0.3c2.2,0.6,4.7-2.1,6.5-1.6
			c0,0.2,0,0.4-0.1,0.6C232,433.1,226.5,436.8,228.2,438.5L228.2,438.5z M370.2,435.3c0.1-0.3,0.3-0.6,0.1-0.9
			c-0.2-0.3-0.4-0.4-0.9-0.3c-0.7,0.4-4.4,1.4-5.4,1.2c-1.3-0.2-2.3-1.3-3.8-1c-0.1,0.2-0.2,0.3-0.3,0.5c0,0.2,0.1,0.4,0.1,0.6
			c1.2,0.8,3.1,0.9,4.2,1.8c1.4,1.1,2.2,3.3,3.9,4.1c0.1-0.1,0.3-0.1,0.4-0.2c0.6-2.3-3.3-2.9-2.9-4.5
			C365.9,435.9,369.5,435.7,370.2,435.3L370.2,435.3z M365.3,465.2c-5.4-4.4-9.7-7.3-18-8.9c-2-0.1-4-0.2-6-0.3
			c-2.3-0.4-5.7-0.2-7.9,0.1c-1.4,0.1-2.9,0.1-4.3,0.2c-5.9,1.1-11.2,2.8-15.8,5.3c-4.3,2.3-7.6,5.4-11.2,8.3
			c-1.5,1.2-3.3,4.4-4.9,5.2c-1-0.2-2.5-2.6-3.3-3.4c-2.6-2.8-5.6-5.2-8.7-7.5c-5.5-3.9-12.3-6.5-20.2-7.9c-3.5-0.6-8.1-0.4-12-0.4
			c-2.2,0.1-4.5,0.3-6.7,0.4c-6,1.3-10.7,3.3-14.8,6.4c-0.8,0.6-3.2,2.2-3.3,3.4c2.8,4.3,7.1,9,11.1,12.2c0.7,0.5,2.9,3.2,3.8,2.9
			c0.6-0.2,0.9-0.9,1.3-1.3c1.4-1.3,2.7-2.6,4.1-3.9c4.2-3.4,8.3-5.2,14.5-6.7c2-0.5,5.1-0.9,7.5-0.4c2,0.4,4.1,0.8,6.1,1.2
			c4.2,1.3,7.6,3.5,10.8,5.8c1.5,1.1,3.2,2.3,4.3,3.9c0.8,1.2-0.4,6.8,0.5,7.4c0.5,0.3,1.7,0.1,2.4,0.1c1.4,0,7.3,0.4,7.7-0.5
			c0.8-1.5-0.6-5.8,0.3-7.1c1.2-1.1,2.4-2.2,3.6-3.3c3.3-2.6,6.8-5,11.3-6.3c8.7-2.5,17.7-0.8,23.9,2.9c3.1,1.8,6.3,4.3,8.5,7.1
			c0.6,0.8,2.2,3.5,3.1,3.6c1.4-0.7,2.5-2.1,3.7-3.1c3-2.4,5.9-5,8.3-8c0.8-1,3.2-2.8,3.3-4.1C367.6,467.2,366.3,466,365.3,465.2
			L365.3,465.2z M339.3,501.7c-1.3-0.3-1.6,0.9-2.9,0.7c-0.1-0.1-0.2-0.2-0.3-0.3v-0.5c0.4-0.7,1-1,1.5-1.5c0.6-0.8,1.3-1.7,1.9-2.5
			c0-0.7-0.1-0.9-0.4-1.2c-0.6-0.2-1.9-0.5-2.3,0.1c0,0.5,0,0.9-0.1,1.4c-0.1,0.7-0.9,2-1.5,2.3c-0.2,0-0.3,0-0.5,0.1
			c-0.5-0.2-2.4-2.5-2.2-3.2c0.2-0.9,1-0.8,1.1-1.9c-0.3-0.7-0.8-1.2-1.9-1.1c-0.2,0.5,0.1,1.4-0.1,2.1c-0.4,1.1-1.6,1.7-2.3,2.5
			c0,0.2,0,0.3,0.1,0.5c0.1,0.1,0.2,0.3,0.3,0.4c1-0.1,1-0.6,1.9-0.7c0.1,0.1,0.2,0.1,0.3,0.3c0,0.2,0.1,0.4,0.1,0.7
			c-0.5,1-1.6,1.4-2.1,2.4h-0.3c-1.4-0.3-1.2-2.3-2.9-2.1c-0.1,0.1-0.2,0.1-0.3,0.2c0,1.3,2.2,3.7,3.5,3.7c1.1-0.6,1.7-1.7,3.3-1.3
			c0.1,0.1,0.2,0.3,0.3,0.4v0.5c-1.1,2-6.4,2-7.4,4c0.6,1,2.1,0.5,3.1,0.1c0.9-0.4,2.9-1.5,3.7-2.1c0.9-0.6,1.7-1.5,2.9-1.7
			c0.1,0.1,0.3,0.3,0.4,0.4c0,0.1,0,0.2-0.1,0.3l-4.2,3.5c-0.6,0.2-1.3,0.1-1.8,0.3c0,0.2,0,0.4-0.1,0.6c0.3,0.4,0.5,0.7,0.8,1.1
			c1.2,2.5-3.4,2.8-4.1,3.8c-0.1,0.2-0.2,0.4-0.1,0.6c0.1,0.1,0.1,0.2,0.2,0.3c1.6,0.4,2-0.8,3.5-0.9c0.2,0.1,0.3,0.2,0.5,0.5
			c0.8,1.8-2,1.6-2.8,2.3c0,1.7,3,1.1,4,0.5c1.2-0.8,0.1-1.9,0.5-3.2c0-0.1,2.9-1.9,3.3-2.6v-0.3c-0.1-0.2-0.2-0.4-0.3-0.6
			c-1.4-0.5-1.5,0.6-2.7,0.7c-0.2-0.1-0.3-0.1-0.4-0.3c-0.1-0.2,0.9-2.7,1.1-2.9c1.5-0.6,6.1-3.9,6.1-5.7
			C339.7,501.9,339.6,501.8,339.3,501.7z M271.5,505.9c-1,0.5-1,1.6-2.4,1.7c-0.9-0.8,0.6-1.6,0.8-2.3c0-0.6,0.1-1.1,0.1-1.7
			c0.6-0.6,1.1-1.3,1.7-1.9c0.3-0.8,0.6-1.5,0.9-2.3c0.6-0.6,1.2-1.3,1.8-1.9c0.6-1.2-0.6-2.5-1.7-2.5c-0.3,0.2-0.5,0.2-0.6,0.5
			c-0.1,0.7-0.1,1.4-0.2,2.1c-0.3,1-1.1,2.9-1.8,3.6c-0.2,0-0.4,0-0.7-0.1c-0.1-0.1-0.1-0.3-0.2-0.4c0.2-1.4,2.3-4-0.5-4.3
			c-0.2,0.1-0.4,0.2-0.5,0.3c-0.3,1.1,0.4,2.8-0.1,4.1c-0.3,0.6-1,0.9-1.3,1.5c-0.1,0.5-0.3,1.1-0.4,1.6c-0.3,1.1-1.1,1.7-1.1,3.1
			c0.4,0.8,1.2,0.8,1.5,1.7c-0.5,1.3-3,3.8-2.4,4.7c2.3,0,2.4-2.7,3.6-3.9c0.2,0,0.4,0,0.5,0.1c0.1,0.1,0.3,0.2,0.4,0.3
			c0,1.9-1.8,1.7-2,3.4c0.1,0.1,0.2,0.2,0.3,0.3c1.3,0.2,2.9-1.8,3.1-3c0-0.6,0-1.3-0.1-1.9c0.2-0.7,1.6-1.9,2.6-1.5
			c0.3,0.1,0.4,0.2,0.5,0.5c0.4,1-0.5,1.8-0.8,2.3c-1,1.9-2.4,4.1-4.2,5.3c-0.2,0.2-0.7,0.4-1.2,0.3c-0.4-0.2-0.8-0.4-1.2-0.7
			c-0.8-0.2-1.4,0.5-1,1.1c0.7,1,3,0.9,4,0.3c2.3-1.4,3.7-3.6,5.2-5.9c0.4-0.6,1.5-1.7,1.3-2.7C275,506.7,273,505.1,271.5,505.9
			L271.5,505.9z M268.4,505.9c-0.2,0.4-1.1,1-1.4,0.5c-0.5-0.8,0.4-1.6,0.9-1.9c0.3,0.1,0.4,0.1,0.5,0.4
			C268.6,505.1,268.6,505.5,268.4,505.9z M366.4,512.5H366c-0.8,0.5-1,1.2-1.7,1.9c-1.4,1.4-3.9,0-4.9-1V513
			c0.6-1.2,2.8-1.3,2.9-2.9c0.1-1.6-2.1-1.3-1.9-2.9c0.4-0.5,1.2-0.7,1.5-1.3c0.1-0.7-0.5-1-0.5-1.7c0.2-1.7,2.5-1.9,3.5-2.9
			c0-0.6-0.1-0.8-0.3-1.1c-3.6-1.1-5,1.9-7.7,2.1c0-0.1-0.1-0.1-0.1-0.2V502c0.6-1.4,5-3.6,6.5-4.3c0.8-0.4,1.9-0.6,2.5-1.2V496
			c-0.4-0.8-1.3-1-2.5-0.9c-0.1,0-0.2,0.1-0.3,0.1c-0.2,0.5-0.4,1-0.7,1.5c-0.5,0.7-1.6,0.9-2.4,1.4c-1.8,1-3.7,2.4-4.9,4
			c-0.6,0.8-2.2,2.8-0.4,3.5c0.4,0.2,1,0,1.3-0.1c0.8-0.8,1.6-1.5,2.3-2.3c0.9-0.7,1.7-1.3,2.6-2c0.7,0,0.8,0.5,0.7,1.1
			c-0.9,1.1-2.4,1.5-2.9,2.9c0.3,0.4,0.6,0.8,0.9,1.3c-0.1,0.9-0.9,0.9-1.1,1.9c0.4,0.6,1,0.8,1.5,1.3c0,1.7-2.3,3.3-3.4,3.9
			c-0.6,0.4-1.4,0.4-1.9,0.9c0,0.2,0,0.4,0.1,0.7c0.1,0.3,0.2,0.3,0.5,0.5c1.5,0.8,1.6-1.7,3.2-1.3c1.4,0.3,4.6,3.2,6.1,2.1
			c0.6-0.4,0.9-1.2,1.3-1.8c0.3-0.5,1.3-0.9,1-1.7C366.6,512.8,366.5,512.7,366.4,512.5L366.4,512.5z M248.8,500.3
			c-0.5,0.3-1.1,0.7-1.6,1c-3.2,1.2-5.7,1.2-7.9,3.4c-0.2,0-0.4,0-0.7-0.1l-0.3-0.3c0.1-2.7,5.6-3.1,7.1-4.8c0-0.4-0.1-0.4-0.2-0.6
			c-0.8-0.1-1.6-0.5-2.3-0.3c-0.4,0.4-1.5,2.3-2.1,0.8c-0.3-1.3,0.6-2.4-0.1-3.5c-0.2,0-0.5-0.1-0.7-0.1c-1.1,1.1-0.1,4.5-1.5,5.2
			c-1,0.2-2-0.1-2.7,0.3c0,0,0,0.1-0.1,0.1c0,0.4,0.1,0.4,0.3,0.7c0.5,0.1,1.3,0.1,1.5,0.5c0.1,0.2,0.2,0.5,0.1,0.8
			c-0.4,0.8-1.3,2.1-2.1,2.6c-0.8,0.5-1.9,0.6-2.3,1.4c0,0.1,0,0.2,0.1,0.3c0.6,0.3,1.7,0.1,2.4,0.3c0.2,0.4,0.4,0.7,0.7,1.1
			c0.7,0.1,1.4-0.4,2.1-0.1c0.3,0.1,0.4,0.4,0.3,0.7c-0.4,0.7-1.1,0.9-1.2,1.9c1,1.3,1.6,0,2.8-0.3c1.4,1.2-0.3,2.2,0.1,3.8
			c0.1,0.1,0.3,0.2,0.4,0.3c0.2,0,0.4,0,0.5-0.1c0.5-0.3,0.7-1.1,1.1-1.5c1.4,0.1,3.1,2.8,4.9,2.1c2.6-1.1,3.5-7.6,4.2-10.9
			c0.2-1.2,0.9-3.5,0.2-4.4C251,500.1,249.6,500,248.8,500.3L248.8,500.3z M236.9,507.3c0,0,0-0.1,0.1-0.1c0.4-0.7,1.6-1,2.2-1.5
			h0.4l0.3,0.3C240,507.4,237.9,508.7,236.9,507.3z M249.2,505.9c-0.4,2-1.6,7.5-3,8.2c-1.3,0.6-3.5-0.9-3.8-1.7
			c-0.3-0.7,0.2-1.6-0.1-2.3c-0.4-0.9-1.4-1-1.4-2.3c0.4-0.5,0.8-1.1,1.2-1.6c0.2-0.7-0.3-1.2-0.1-1.9c1.2-0.4,2.6-0.3,4.1-0.7
			c1-0.3,1.6-1.1,2.5-1.6C249.8,502.3,249.5,504.2,249.2,505.9z M297.6,497.1c-0.6,0.1-1.1,0.2-1.7,0.3c-1.2,0.9-2.4,1.7-3.7,2.6
			c-1,0.6-2.6,0.8-3.4,1.6c0.1,2.8,3.8-0.5,4.1-0.6h0.9c0.8,1.9-2.1,5.7-1.9,6.5c0.3,0.6,0.9,1.1,1.3,1.7c-0.1,1.2-0.8,1.9-1.4,2.7
			c0.1,0.9,0.8,1.4,1.3,1.9c1.6,0,3.7-1.1,4.6-2c0-0.4-0.1-0.5-0.2-0.7h-0.1c-1.2-0.3-1.6,0.5-2.6,0.6c-0.3-0.1-0.4-0.2-0.5-0.5
			c0.2-0.5,0.4-1,0.5-1.5c0.2-0.9-0.4-1.6-0.5-2.3c-0.1-0.7,0.8-4.1,1.1-4.8c0.7-1.7,3.8-3,4-4.7C299.2,497.1,298.7,497,297.6,497.1
			L297.6,497.1z M296.4,499.9c-0.3,0.2-1,0.2-1.3-0.1c-0.2-0.7,0.6-1,1-1.3c0.2,0.1,0.4,0.1,0.5,0.2c0,0.2,0.1,0.4,0.1,0.7
			C296.6,499.6,296.6,499.7,296.4,499.9L296.4,499.9z M263.4,498.5c-0.5-0.2-0.9-0.3-1.6-0.3c-0.9,0.5-1.5,1.2-2.4,1.7
			c-0.5,0.2-1.1,0.5-1.6,0.7c-0.2,0.5-0.2,1,0.3,1.2c1.1,0.3,2-0.8,2.6-1.3c0.2,0,0.4,0,0.6,0.1c0,0.2,0,0.3,0.1,0.5
			c-0.5,0.7-1.3,1.5-1.5,2.4c0,0.7,0.1,1.4,0.1,2.1c-0.3,0.8-1.4,1.2-1.7,2.1c-0.6,1.5-0.7,4-1.3,5.5c-0.5,1.4,0.2,3.8,1.6,3.5
			c0.9-0.7,0.2-1.5,0.5-2.7c0.3-1.2,1.7-1.2,1.8-2.6c-0.1-0.2-0.1-0.3-0.3-0.4c-0.5,0-0.9,0-1.4,0.1c-0.7-0.5,0.7-3.5,1.1-3.9
			c0.2,0,0.4,0,0.5,0.1c0.8,0.4,1.4,1.6,2.4,0.6c0-1.8-2.2-2-1.7-3.9C261.9,501.8,264.4,501,263.4,498.5L263.4,498.5z M288.1,504.5
			c-1.2,0.4-1.5,4.3-3.3,3.3c0,0,0-0.1-0.1-0.1c0-1.7,1.2-2.4,1.7-3.6c0.1-0.7,0.1-1.5,0.2-2.2c0.4-1.4,1-2.9-1.3-2.9
			c-0.7,0.3-1.4,0.7-2.1,1c-0.7,0.2-1.5,0.1-2.1,0.4c-0.1,0.4-0.1,0.8,0.3,0.9c1.4,1.1,2.9-1.3,4.1-0.1c0,0.2,0,0.4-0.1,0.6
			c-0.5,1-1.9,1.1-2.5,2c-0.8,1.2,0.8,2,0.5,3.5c-0.2,1.3-0.6,2.9-1.2,3.9c-0.6,0.9-1.8,1.3-1.9,2.6c0.2,0.5,0.9,1.4,1.6,1.2
			c1.2-0.2,5.1-6,5.8-7.3c0.3-0.6,1.2-1.7,0.9-2.7C288.5,504.5,288.4,504.4,288.1,504.5L288.1,504.5z M311.1,507.4v-0.1
			c-0.4-1.5,1.7-4.7,2.4-5.6c0.3-0.5,1.5-1.4,0.6-2.1c-0.9-0.6-3.1-0.7-4.5-0.7c-0.8,0.3-1.7,0.1-2,0.9c0,0.1,0,0.3-0.1,0.4
			c0.1,0.2,0.2,0.4,0.3,0.5c1.3,0.3,2.3-0.6,3.5,0.1c0,0.1,0.1,0.2,0.1,0.3c-0.3,1.8-1.5,3.4-2,5.2c-0.2,0.8-0.2,2.1-0.8,2.6
			c-0.9,0.7-5.1,1.9-4.6,3.5c0.1,0.2,0.2,0.3,0.5,0.4c0.8,0.2,1.9,0,2.5-0.3c0.9-0.4,1.6-1.1,2.4-1.6c1.3-0.8,2.9-1.2,4.1-1.9
			c0.7-0.4,1.9-0.6,2.3-1.3v-0.4c-0.1-0.1-0.1-0.2-0.2-0.3C314,506.6,312.4,508.2,311.1,507.4L311.1,507.4z M327.6,504.2
			c-0.5-0.8-1.6-2.4-2.7-2.5c-0.7,0.8,1.2,3.6,2.1,3.9C327.5,505.4,327.7,504.9,327.6,504.2z M350.1,511c-2-1.3,6-8.4,0.3-8.3
			c-1.3,0.8-2.4,1.9-3.7,2.7c-0.6,0.4-1.5,0.5-2.1,0.9v0.4c1.4,2.9,4.7-1.8,5.5-2.6c0.5,0,0.5,0.1,0.7,0.3c0,0,0,0.1,0.1,0.1
			c0,1.8-1.5,2.7-2,4.1c-0.5,1.4,0.4,3,0,4.5c-0.2,1-1.9,2.9-0.1,3.6c0.2,0,0.4,0,0.5,0.1c1.3-0.7,0.8-1.5,1.4-3
			c0.7-1.8,3.5-4.6,3.5-6.7C352.8,505.2,351.8,510.8,350.1,511L350.1,511z M322.9,508.5c-0.1,0-0.2,0.1-0.3,0.1
			c-0.3,0.5-1.2,3-1,3.5c0.1,0.4,0.6,0.7,1,0.6c1.3-0.3,1.4-2.6,1.1-3.9C323.4,508.6,323.3,508.5,322.9,508.5L322.9,508.5z
			 M232.2,508.8c-0.1-0.1-0.2-0.1-0.5-0.1c-0.2,0.1-0.3,0.2-0.5,0.3c0,0.7,0.1,1.3,0.1,2c-0.3,0.7-0.7,1.4-1,2.1
			c-0.4,1.6,0.7,2.9,2,2.9c0.4-0.2,0.8-0.5,0.9-0.9C233.6,514,232.9,509.1,232.2,508.8L232.2,508.8z"/>
	</g>
</g>
</svg>
