<?xml version="1.0" encoding="UTF-8"?>
<!DOCTYPE svg PUBLIC "-//W3C//DTD SVG 1.1//EN" "http://www.w3.org/Graphics/SVG/1.1/DTD/svg11.dtd">
<!-- Creator: CorelDRAW (Evaluation Version) -->
<svg xmlns="http://www.w3.org/2000/svg" xml:space="preserve" width="9.84252in" height="5.90551in" version="1.1" style="shape-rendering:geometricPrecision; text-rendering:geometricPrecision; image-rendering:optimizeQuality; fill-rule:evenodd; clip-rule:evenodd"
viewBox="0 0 9842.52 5905.51"
 xmlns:xlink="http://www.w3.org/1999/xlink"
 xmlns:xodm="http://www.corel.com/coreldraw/odm/2003">
 <defs>
  <style type="text/css">
   <![CDATA[
    .fil0 {fill:#D83235}
    .fil1 {fill:#EE3338;fill-rule:nonzero}
   ]]>
  </style>
 </defs>
 <g id="图层_x0020_1">
  <metadata id="CorelCorpID_0Corel-Layer"/>
  <g id="_105553133318080">
   <g>
    <path class="fil0" d="M5880.98 3988.24c0,0 -13.5,49.56 57.19,27.8 0,0 53.78,-51.72 57.4,-64.4 0,0 28.99,-9.96 18.12,17.21 0,0 -19.02,30.8 -43.48,82.43 0,0 -3.04,57.2 -3.04,95.27 0,0 -33.23,45.38 0,71.28 0,0 44.11,9.58 42.3,-57.52l66.19 -118.78c0,0 34.46,-55.31 -16.32,-36.27 0,0 -35.36,73.44 -47.15,85.23 0,0 -17,21.76 -18.81,-10.88 0,0 41.48,-97.93 50.55,-100.65 0,0 36.27,-74.35 -46.24,-57.13 0,0 -53.09,34 -86.14,60.75 0,0 -12.75,8.5 -30.56,5.66z"/>
    <path class="fil0" d="M3598.26 3889.3l69.65 -9.19c0,0 6.98,-27.97 12.87,-105.07 0,0 32.22,-4.91 32.09,10.84l-2.35 72.48c0,0 8.69,7.24 31.33,2.7 0,0 -4.24,-7.15 0.74,-32.53 0,0 5.98,-2.8 20.48,4.44 0,0 16.92,8.57 45.31,9.06 0,0 10.67,13.17 -7.45,20.41 0,0 -63.24,37.59 -81.36,33.96 0,0 -29,10.42 -59.81,48.94 0,0 -21.75,32.63 21.75,10.87 0,0 39.88,-39.88 87,-43.5 0,0 54.38,-25.38 77.94,-19.94 0,0 34.28,-35.35 61.63,-25.37 0,0 31.43,-3.63 31.43,27.19 0,0 -24.18,278.22 -100.31,307.23 0,0 -9.88,19.8 -100.51,-49.08 0,0 -5.55,-10.73 -17.09,39.11 0,0 -43.26,1.35 -23.78,-32.63 0,0 21.75,-79.75 -16.31,-48.94 0,0 -54.37,41.69 -43.5,-21.75 0,0 52.56,-45.31 3.63,-38.06 0,0 -33.08,35.34 -38.52,-19.04l-61.18 -0.68c0,0 -3.53,-9.88 7.37,-17 24.88,-16.25 76.28,-35.7 61.51,-46.66 0,0 10.87,-14.5 23.56,-27.19 0,0 30.36,-36.71 -32.63,-27.19 0,0 -9.61,-4.96 -3.49,-23.44zm15.86 123.04c0,0 17.21,2.72 31.7,-5.43 0,0 28.98,-18.12 33.52,-27.18 0,0 27.17,-9.06 9.06,12.68 0,0 -17.21,35.33 -23.55,37.14 0,0 -13.36,-2.72 -14.26,-8.15l-19.02 -0.68c0,0 0.45,4.98 -5.21,5.44 -5.66,0.45 -12.23,-0.23 -12.23,-0.23l0 -13.59zm112.23 -39.7c0,0 -1.72,-22.13 22.74,-24.62 0,0 37.14,-9.06 79.71,-11.78 0,0 19.02,-19.02 42.57,-32.61 0,0 15.4,-8.15 15.4,7.25 0,0 0,131.35 -36.24,172.11 0,0 2.11,50.63 -33.52,75.19 0,0 -49.82,0 -74.28,-30.8 0,0 14.49,-78.81 -26.27,-76.09 0,0 7.25,-22.65 -6.34,-26.27 0,0 19.86,-16 30.31,-35.63 0,0 10.74,-19.12 -14.1,-16.75zm-217.74 81.63c0,0 3.69,-29.06 29.07,-0.95 0,0 14.51,36.26 13.6,103.37 0,0 13.6,34.09 -22.67,45.15 0,0 -52.59,-9.79 -36.27,-78.7 0,0 28.06,-19.47 16.26,-68.87z"/>
    <path class="fil0" d="M5524.54 3866.5c0.18,-0.27 -34.39,-8.2 -18.12,17.21 0,0 15.4,33.52 62.5,68.85 0,0 25.36,-5.44 39.86,-26.27 0,0 9.51,-8.61 47.56,-2.26 0,0 -0.45,13.13 -0.45,23.1 0,0 -90.36,34.27 -154.9,64.31 0,0 -25.36,28.98 51.63,19.93 0,0 125.01,-67.94 150.37,-82.43 0,0 23.56,-12.68 14.5,9.96 0,0 -81.53,43.48 -87.87,72.47 0,0 -36.24,0.91 -41.67,0.91 0,0 -23.55,23.55 9.96,35.33 0,0 9.87,2.95 2.62,21.99 0,0 -2.72,42.62 -83.42,58.94 0,0 -10.88,8.16 0,23.58 0,0 -3.63,10.88 48.06,-2.72 0,0 8.16,-19.04 35.36,-9.98 0,0 3.63,17.23 0.91,27.2 0,0 -7.25,7.25 -18.13,16.32 0,0 -33.55,-4.53 -43.52,10.88 0,0 -9.07,28.24 48.96,20.02 0,0 64.38,7.19 53.5,-42.69 0,0 -8.16,-37.17 21.76,-38.08 0,0 19.04,-40.8 43.52,-39.9 0,0 12.69,-38.08 -30.83,-32.64 0,0 -17.18,-1.61 -14.92,13.8 0,0 -24.46,1.81 -28.53,1.36 0,0 -1.88,-20.6 21.69,-26.04 0,0 6.35,-30.83 -14.51,-29.02 0,0 -5.44,-9.97 17.23,-10.88 0,0 109.72,-65.28 111.53,-87.05 0,0 48.96,-37.17 -6.35,-47.15 0,0 -36.29,7.19 -47.17,22.59 0,0 -27.17,-8.15 9.06,-33.52 0,0 47.1,-64.31 52.54,-69.75 0,0 12.68,-49.82 -59.78,-27.18 0,0 -9.96,10.87 0.91,20.84 0,0 5.43,14.49 -2.72,21.74 0,0 -13.59,5.43 -16.3,32.61 0,0 -5.44,24.46 -40.76,-13.59 0,0 -7.24,-19.02 -22.65,-32.61 0,0 -9.96,-19.93 22.65,-39.86 0,0 7.25,-27.53 -38.04,-38.67 0,0 -18.12,3.35 -12.69,12.41 0,0 20.83,11.78 2.72,30.8 0,0 -7.25,45.29 -38.95,38.05 0,0 -3.62,24.46 -7.24,34.42 0,0 13.58,12.69 37.14,-4.53 0,0 -4.07,-16.3 21.74,-9.96 0,0 -1.81,50.72 -48.91,45.29 0,0 -10.87,0 11.77,20.83 0,0 2.27,18.57 -20.83,8.61 0,0 -11.32,-32.16 -40.76,-47.56zm-108.08 175.03c0,0 -0.91,18.13 -0.91,32.64 0,0 -20.28,18.13 -14.67,48.06 0,0 16.49,13.6 35.53,4.53 0,0 10.88,-18.13 11.79,-49.87 0,0 0.91,-19.95 -3.63,-33.55 0,0 -6.81,-3.63 -28.11,-1.81zm53.05 -143.33c0,0 -12.78,7.96 -4.75,25.37 0,0 19.02,0.91 19.93,30.8 0,0 17.07,29.15 23.41,32.78 0,0 43.62,-13.75 22.79,-31.87 0,0 -35.33,-48.92 -44.39,-51.63 0,0 -2.72,-5.89 -16.98,-5.44zm175.64 -6.91c0,0 -1.48,-2.97 0.3,-5.94 1.78,-2.98 -0.59,-1.19 1.78,-4.16 2.37,-2.97 0.59,-3.27 2.37,-3.27 1.78,0 0.89,-3.87 3.56,0 2.67,3.87 2.67,3.86 3.56,5.94 0.89,2.08 0.89,3.57 0.89,3.57 0,0 2.06,7.79 -2.37,8.03 -5.12,0.28 -5.56,-1.33 -10.08,-4.16zm-4.5 273.55c0,0 0.31,-0.63 0,-2.52 -0.31,-1.89 0.63,-2.21 0.63,-4.42 0,-2.2 0.31,-0.31 1.26,-4.1 0.94,-3.78 0.31,-2.84 1.26,-5.05 0.94,-2.2 2.83,-4.09 2.83,-4.09 0,0 1.89,-1.27 1.57,-2.85 -1.77,-8.87 -7.96,-2.35 -9.44,1.27 0,0 -1.89,0.31 -2.83,2.21 -0.94,1.89 -2.52,2.2 -2.83,4.42 -0.31,2.2 -0.31,-0.95 -0.31,4.73 0,5.68 0,6.31 0,6.31 0,0 1.57,1.26 2.52,2.83 0.94,1.58 5.35,1.26 5.35,1.26z"/>
    <path class="fil0" d="M5119.63 3882.8c0,0 -33.52,-21.83 -2.72,-32.61 0,0 43.48,-20.83 132.25,3.63 0,0 18.12,9.06 -11.78,38.95 0,0 -58.88,81.53 -54.35,133.16 0,0 92.4,-27.17 97.83,-9.96 0,0 18.57,4.08 -5.89,21.29 0,0 -26.89,7.75 -56.61,29.44 0,0 -50.73,17.21 -82.43,36.23 0,0 -28.99,40.24 -99.64,29.63 0,0 -29.68,-35.71 100.89,-84.68 0,0 11.51,-76.95 38.16,-129.29 0,0 33.06,-49.35 -7.25,-43.01 0,0 -36.23,-0.47 -48.46,7.23z"/>
    <path class="fil0" d="M4756.39 3914.5c0,0 -77,7.25 -24.46,-29.89 0,0 90.58,-34.42 127.72,-77.9 0,0 12.69,1.81 28.99,-0.91 0,0 12.68,-12.68 42.57,-0.91 0,0 14,11.08 8.15,22.65 -5.85,11.56 -1.96,3.98 -1.96,3.98 0,0 -89.53,72.11 -80.47,91.13 0,0 -8.15,21.74 -10.87,54.35 0,0 -12.68,-1.81 -9.06,17.21l0.91 37.59c0,0 20.83,13.13 -4.53,72.92 0,0 2.72,12.69 40.76,-8.15 0,0 81.07,-12.94 7.7,28.08 0,0 -9.87,4 -23.77,9.76 -19.05,7.89 -42.11,21.13 -57.3,13.8 0,0 -2.72,-17.66 -15.85,-20.38 0,0 -10.42,-17.21 5.43,-31.25 0,0 46.7,-50.52 -5.9,-66.84 0,0 -5.56,-12.5 1.15,-30.29 2.33,-6.17 11.14,-13.22 14.19,-20.14 4.59,-10.44 4.51,-26.87 11.85,-32.65 0,0 6.34,-36.46 10.42,-48.46 0,0 17.66,-23.55 -16.31,-14.94 0,0 -37.14,30.35 -49.37,31.25zm-201.68 -22.41c0,0 -14.04,-21.06 9.52,-30.12 0,0 36.25,3.62 59.81,-19.94 0,0 67.07,-12.69 56.19,29 0,0 -18.13,29 -14.5,83.38 0,0 -44.19,56.76 -29.69,78.51 8.71,1.25 10.37,-3.07 14.36,-6.42 23.02,-19.3 25.49,-50.22 40.7,-66.65 0,0 36.25,-30.81 14.5,36.25 -27.35,61.5 -80.96,119.38 -121.44,179.08 0,0 -77.94,0.37 -32.63,-57.64 0,0 39.88,-18.13 50.75,-125.07 0,0 -43.65,-42.17 14.5,-76.13 0,0 25.9,-9.55 28.17,-24.04 0,0 5.43,-27.63 -21.29,-10.42 0,0 -9.64,12.47 -68.97,10.2zm296.26 -43.21c0,0 -2.79,-0.81 0.74,-3.59 1.6,-1.26 9.18,-3.22 11.41,-4.81 2.75,-1.97 1,-3.76 3.91,-5.47 3.73,-2.19 15.92,-4.91 16.63,-2.41 0,0 11.89,1.73 5.84,9.96 -1.22,1.66 -4.64,2.58 -7.41,4.91 -0.39,0.33 -0.69,0.92 -0.89,1.26 0,0 -2,3.42 -5.14,6.06 -1.13,0.95 -2.63,0.4 -3.73,1.52 -2.64,2.71 -0.21,5.46 -4.8,8.55 0,0 -14.28,3.22 -20.73,-2.26 0,0 0.94,-13.08 4.17,-13.73z"/>
    <path class="fil0" d="M4279.92 3813.05c-10.44,-38.63 45.67,-27.36 50.5,0.68 5.28,26.8 -21.57,39 -23.1,74.06 5.81,1.28 15.93,5.06 20.38,0 5.06,-26.87 34.12,-76.17 35.56,-101 -3.93,-43.03 24.31,-33.06 42.57,-19.02 11.47,16.61 13.43,44.99 -3.63,57.97 -28.69,15.25 -41.97,53.14 -45.29,82.43 -42.55,8.6 -35.22,62.3 -37.37,76.31 -7.83,12.94 -24.83,20.76 -20.83,36.01 14.86,9.76 33.39,-12.43 46.43,-31.7 25.7,-9.21 91.7,-5.74 85.69,54.8 -6.85,9.94 -2.44,3.88 -12.22,21.17 -39.67,70.18 -79.57,120.33 -126.92,143.69 -21.89,7.96 -57.71,7.78 -86.06,-11.55 -5.75,-24.64 27.92,-18.9 48.67,-6.12 20.91,15.47 51.85,-28.19 76.79,-56.16 21.89,-35.78 42.42,-56.61 58.88,-101 -3.62,-23.85 -21.29,-27.33 -44.84,-7.7 -11.78,12.76 -30.8,8.76 -17.67,59.33 -6.04,21.59 -18.42,36.83 -33.06,51.18 -11.47,6.94 -16.15,20.68 -34.42,20.83 -5.43,-3.02 -2.26,1.21 -9.96,-10.41 3.32,-9.44 19.33,-25.67 28.99,-38.5 14.27,-15.7 19.25,-28.01 21.06,-41.67 -11.66,-0.2 -18.04,-3.78 -27.4,4.53 -7.7,3.85 -4.76,24 -8.15,29.89 -15.17,20.23 -23.13,20.72 -35.81,41.64 -10.78,8.46 -32.9,5.89 -34.84,-0.65 12.96,-26.23 32.01,-49.07 48.01,-73.6l10.19 -35.78c-13.51,-2.34 -26.8,-8.08 -34.87,-16.76 12.5,-41.7 30.76,-75.85 32.83,-115.04 8.2,-2.16 22.06,2.03 24.59,-6.47 10.75,-20.72 11.09,-40.98 7.11,-66.9 -0.6,-4.83 -1.21,-9.66 -1.81,-14.49zm-184.79 88.77c0,0 -48.91,5.43 -28.08,-28.99 0,0 52.54,-19.93 68.85,-45.29 0,0 21.74,-9.06 48.01,1.81 0,0 22.65,6.34 -10.87,69.75 0,0 -50.72,40.76 -13.59,78.81 0,0 33.52,35.33 17.21,51.63 0,0 -20.83,3.62 -30.8,-1.81 0,0 -19.02,-43.48 -38.95,-4.53 0,0 -13.59,51.63 -16.3,71.56 0,0 15.06,11.91 22.31,-6.22 0,0 12.35,-18.92 20.52,1.94 0,0 4.54,23.58 -36.27,49.87l-2.72 57.12c0,0 -7.62,18.14 -29.02,13.6 0,0 -43.32,-65.03 -9.07,-90.67 0,0 -0.17,-126.2 51.46,-134.35 0,0 13.59,-7.25 0,-19.93l0 -41.67c0,0 28.99,-39.86 36.24,-46.2 0,0 0.91,-27.18 -30.8,10.87 0,0 -14.95,8.61 -18.12,12.68zm165.77 105.08c0,0 12.8,5.15 12.92,-9.92 10.85,-1.2 9.51,-8.78 14.26,-13.18 0,0 2.72,-23.1 0.91,-29.44 0,0 -18.05,-10.16 -28.01,39.21 0,0 -4.59,6.35 -0.07,13.33z"/>
    <path class="fil0" d="M6331.65 3793.12c0,0 7.25,-37.14 -57.97,-31.7 0,0 -26.72,-3.4 -11.32,36.91 0,0 -140.09,49.26 -189.94,158.93 -0.61,1.35 -2.8,5.41 -1.91,6.22 0,0 13.85,42.51 66.39,6.28 0,0 19.02,-37.14 83.34,-71.56 0,0 27.18,-18.12 27.18,9.96 0,0 -79.72,45.29 -75.19,79.71 0,0 57.97,0 0,44.39 0,0 -9.96,21.74 38.04,35.33 0,0 -14,40.13 -84.73,88.19 0,0 -25.39,-0.91 -32.64,15.41 0,0 -7.26,37.18 44.43,19.04 0,0 10.88,-38.99 38.99,-20.85 0,0 67.1,31.34 87.05,39.89 0,0 -2.89,9.07 43.52,0.91 0,0 30.26,-59.85 46.41,-63.47 0,0 -4.7,-39.9 -38.26,-8.16 0,0 -19.04,47.15 -61.66,39.9 0,0 -48.96,-26.3 -55.31,-26.3 0,0 -20.85,-20.85 46.24,-49.87 0,0 37.18,-50.78 -25.39,-68.91 0,0 -22.25,-13.78 25.76,-37.33 0,0 20.09,-22.93 -11.78,-38.95 0,0 22.73,-48.01 71.56,-55.26 0,0 48.01,-48.01 -67.94,-35.33 0,0 -84.64,43.53 -103.27,59.78 0,0 -26.27,-4.53 41.67,-46.2 0,0 41.88,-37.75 134.76,-77.84 7.02,-3.03 8.93,-1.12 21.95,-9.12z"/>
   </g>
   <g>
    <path class="fil0" d="M4202.9 2905.94l0 -1522.58 151.73 -107.21 0 1673.64 -0.16 -0.06c-5.62,-2.05 -11.24,-4.06 -16.87,-6.02 -2,-0.7 -4,-1.39 -6,-2.07 -5.41,-1.85 -10.83,-3.65 -16.25,-5.42 -2.45,-0.8 -4.9,-1.59 -7.35,-2.37 -4.9,-1.56 -9.81,-3.08 -14.72,-4.57 -2.82,-0.85 -5.65,-1.7 -8.47,-2.53 -4.67,-1.37 -9.34,-2.72 -14.01,-4.03 -3.09,-0.87 -6.19,-1.72 -9.28,-2.56 -4.4,-1.2 -8.81,-2.36 -13.22,-3.5 -3.36,-0.87 -6.72,-1.72 -10.08,-2.56 -4.25,-1.06 -8.5,-2.09 -12.75,-3.09 -3.51,-0.83 -7.02,-1.64 -10.53,-2.43 -4,-0.91 -8.01,-1.78 -12.02,-2.65l-0.01 -0z"/>
    <path class="fil0" d="M4921.26 329.83c1010.4,0 1829.8,819.4 1829.8,1829.8 0,370.65 -110.35,715.54 -299.89,1003.75 -28.02,-25.09 -66.15,-54.12 -112.91,-83.2l0.21 -0.33c-173.59,-108.17 -384.36,-171.6 -611.62,-171.6 -53.12,0 -105.33,3.47 -156.38,10.16l0.04 -1269.51c0,-98.24 -9.46,-157.27 -79.11,-236.15 -90.82,-102.85 -218.41,-166.69 -382.44,-166.69 -121.73,0 -243.62,49.98 -338.93,132.41l0 -164.24c111.95,-104.96 269.59,-170.61 439.19,-170.61 353.25,0 601.96,231.44 601.96,580.28l0 1163.36c11.99,-0.36 24.02,-0.54 36.11,-0.54 211.43,0 408.6,54.89 574.82,149.63 120.66,-232.56 188.89,-496.68 188.89,-776.72 0,-933.06 -756.68,-1689.73 -1689.73,-1689.73 -921.82,0 -1689.73,758.72 -1689.73,1689.73 0,265.2 61.18,516.11 170.14,739.48 139.24,-77.93 302.87,-122.85 477.95,-122.85 35.63,0 70.78,1.86 105.35,5.48l0 -1244.37 123.75 -87.45 0 1440.15c-8.28,-1.03 -16.56,-1.95 -24.83,-2.77l-3.23 -0.32c-13.75,-1.33 -27.48,-2.39 -41.2,-3.18l-4.24 -0.23c-6.57,-0.35 -13.15,-0.64 -19.71,-0.86 -1.78,-0.06 -3.56,-0.12 -5.33,-0.17 -5.08,-0.15 -10.15,-0.26 -15.23,-0.33 -2.05,-0.03 -4.09,-0.05 -6.15,-0.06 -5.94,-0.05 -11.88,-0.05 -17.81,0 -2.02,0.02 -4.02,0.04 -6.04,0.07 -4.81,0.07 -9.61,0.17 -14.41,0.31 -3.34,0.09 -6.67,0.2 -10,0.34 -4.58,0.18 -9.16,0.4 -13.73,0.64 -2.5,0.13 -4.98,0.28 -7.48,0.43 -4.35,0.26 -8.69,0.54 -13.04,0.86 -3.57,0.26 -7.14,0.55 -10.7,0.85 -4.32,0.37 -8.63,0.76 -12.94,1.18 -3.16,0.3 -6.31,0.63 -9.47,0.96 -4.11,0.44 -8.22,0.91 -12.31,1.4 -3.27,0.39 -6.54,0.8 -9.8,1.22 -4.15,0.54 -8.3,1.1 -12.43,1.69 -3.74,0.54 -7.47,1.09 -11.2,1.66 -3.63,0.56 -7.27,1.15 -10.9,1.76 -3.39,0.56 -6.76,1.15 -10.14,1.74 -3.72,0.66 -7.43,1.33 -11.14,2.04 -3.88,0.73 -7.75,1.49 -11.62,2.27 -3.71,0.75 -7.42,1.52 -11.12,2.32 -3.81,0.81 -7.61,1.65 -11.4,2.51 -2.99,0.67 -5.98,1.37 -8.96,2.07 -4.06,0.96 -8.12,1.95 -12.17,2.97 -3.45,0.87 -6.9,1.75 -10.35,2.65 -4.14,1.08 -8.27,2.2 -12.4,3.34 -2.69,0.74 -5.37,1.5 -8.05,2.26 -4.27,1.22 -8.52,2.48 -12.77,3.76 -3.06,0.93 -6.11,1.86 -9.16,2.81 -4.21,1.32 -8.41,2.67 -12.61,4.04 -2.88,0.95 -5.76,1.91 -8.63,2.88 -4.49,1.52 -8.97,3.07 -13.44,4.66 -2.37,0.84 -4.73,1.7 -7.09,2.56 -4.36,1.59 -8.71,3.22 -13.05,4.87 -2.76,1.06 -5.52,2.12 -8.27,3.2 -4.49,1.76 -8.97,3.56 -13.44,5.39 -2.1,0.86 -4.2,1.73 -6.3,2.61 -4.65,1.95 -9.29,3.94 -13.92,5.97 -2.4,1.06 -4.8,2.12 -7.2,3.19 -4.53,2.03 -9.04,4.09 -13.54,6.2 -1.88,0.88 -3.76,1.76 -5.63,2.65l-0.02 0.01c-32.53,15.29 -63.93,32.3 -94.07,50.91l0.44 0.75c-15.54,9.63 -30.83,19.79 -45.89,30.42 -26.45,18.41 -49.15,36.3 -67.7,52.63 -168.44,-276.83 -265.46,-601.89 -265.46,-949.56 0,-1010.4 819.4,-1829.8 1829.8,-1829.8z"/>
    <path class="fil0" d="M4665.22 1056.67l0 2061.1c-55.67,-41.03 -113.14,-76.69 -171.8,-106.98l-3.45 -1.78c-6.81,-3.49 -13.63,-6.91 -20.47,-10.25l-0.48 -0.23c-6.8,-3.33 -13.62,-6.58 -20.45,-9.76l-0.22 -0.1 0.45 -48.07 0 -1730.99 216.42 -152.93z"/>
    <path class="fil0" d="M5020.9 3134.96l0 10.8c53.24,-41.71 111.1,-78.78 172.81,-110.52l0 -49.51 0 -34.71 0 -1240.77c-7.27,-209.07 -271.88,-199.83 -385.92,-124.6 -14.11,9.31 -26.85,18.76 -37.87,28.8l0 100.97c1.27,-1.3 2.5,-2.7 3.69,-4.24 33.84,-44.16 79.59,-70.46 132.81,-68.76 51.23,1.65 85.18,25.19 103.78,62.94 11.23,22.79 10.86,39.89 10.86,64.64l-0.15 1364.97z"/>
    <path class="fil0" d="M5465.99 1680.11c0,-219.9 -216.19,-341.13 -423.44,-341.13 -101.85,0 -197.57,48.6 -272.4,111.37l0 88.59c71.14,-43.35 155.78,-68.98 232.67,-68.98 139.25,0 226.09,50.73 271.93,144.09 12.39,25.22 13.36,40.13 13.36,67.63l-0.1 1310.54c56.88,-22.91 116.38,-41.5 177.98,-55.31l0 -1256.81z"/>
    <path class="fil0" d="M4896.09 3442.86c-221.44,-264.21 -472.2,-394.52 -819.12,-403.3 -221.63,-5.62 -450.04,35.83 -602.51,212.04 43.04,57.65 87.82,111.94 137.75,164 52.38,55.46 108.19,107.65 167.09,156.24l2.48 2.05c144.66,-171.88 338.42,-284.7 570.19,-259.21 167.42,14.82 313.91,90.69 439.48,227.59l0 149.11 215.82 0 0 -154.22c124.51,-133.68 269.43,-207.84 434.75,-222.48 242.72,-26.69 473.31,104.75 600.82,306.94 120.94,-91.19 230.24,-197.01 325.21,-314.86 -171.45,-207.2 -382.63,-274.01 -651.04,-267.2 -346.91,8.79 -597.67,139.09 -819.12,403.3 -1.02,0.93 -0.79,0.93 -1.81,0z"/>
    <path class="fil1" d="M3433.68 2543.08l9.01 29.55 71.95 -21.93c31.14,-9.49 55.91,-17.94 81.7,-28.52l0.51 0.75c-17.91,15.42 -36.76,34.14 -54.13,53.92l-73.52 82.78 10.6 34.8 195.23 -59.5 -9 -29.55 -72.98 22.24c-34.19,10.42 -59.3,18.68 -83.56,27.88l-0.59 -1.03c19.02,-16.36 38.12,-36.07 55.41,-55.22l74.45 -83.36 -9.85 -32.31 -195.23 59.5zm-29.51 -159.89l5.7 40.6 211.5 38.52 -4.78 -34.02 -62.02 -10.54 -9.39 -66.9 56.6 -28.07 -4.9 -34.88 -192.72 95.28zm126.2 32.72l-55.57 -9.98c-13.01,-1.96 -28.31,-3.31 -41.2,-4.71l-0.08 -0.57c12,-4.89 25.77,-10.61 38.45,-16.48l50.5 -24.58 7.91 56.33zm-141.34 -311.35l-0.42 30.89 75.22 1.02c32.55,0.44 58.71,-0.07 86.5,-2.29l0.25 0.87c-21.76,9.24 -45.41,21.33 -67.98,34.88l-95.23 56.46 -0.5 36.37 204.07 2.78 0.42 -30.89 -76.28 -1.04c-35.74,-0.48 -62.17,-0.27 -88.08,1.11l-0.25 -1.16c23.09,-9.8 47.3,-22.75 69.59,-35.73l96.3 -56.73 0.46 -33.78 -204.07 -2.78zm11.79 -161.15l50.76 30.57c14.54,8.45 27.53,16.19 40.66,22.79l-0.05 0.58c-14.86,4.56 -28.13,9.83 -43.59,15.79l-55.34 21.48 -3.13 37.7 123.67 -54.92 85.1 7.06 2.77 -33.38 -85.9 -7.13 -111.83 -77.94 -3.11 37.41zm37.63 -174.45l-9.85 39.8 181.88 114.62 8.26 -33.35 -53.62 -32.91 16.24 -65.58 62.98 -4.93 8.46 -34.19 -214.35 16.54zm104.9 77.43l-47.84 -29.98c-11.34,-6.68 -25.04,-13.63 -36.47,-19.74l0.14 -0.56c12.96,-0.07 27.87,-0.24 41.82,-0.96l56.02 -3.98 -13.67 55.22zm-10.96 -339.86l-11.85 28.53 69.48 28.85c30.06,12.48 54.54,21.72 81.17,29.96l-0.09 0.9c-23.63,0.5 -50.08,2.96 -76.07,7.18l-109.38 17.1 -13.95 33.6 188.48 78.28 11.85 -28.53 -70.46 -29.26c-33.01,-13.71 -57.63,-23.31 -82.21,-31.64l0.19 -1.17c25.08,-0.53 52.36,-3.58 77.88,-7.37l110.47 -16.96 12.96 -31.2 -188.48 -78.28zm192.28 -149.21l-36.33 60.36 21.22 12.78 19.66 -32.65 49.31 29.68c-0.48,5.44 -4.09,15.06 -11.54,27.43 -22.33,37.11 -61.25,49.06 -105.31,22.54 -44.28,-26.66 -50.06,-68.21 -26.68,-107.05 10.42,-17.31 20.24,-26.91 29.25,-33.61l-17.81 -19.49c-9.99,6.79 -22.64,21.08 -33.81,39.63 -34.1,56.65 -24.59,117.31 32.03,151.39 27.85,16.76 94.14,42.52 143.43,-39.36 13.55,-22.51 21.04,-46.31 23.56,-59.29l-86.97 -52.35zm227.35 -109.34l22.6 -24.72 -150.65 -137.69 -22.6 24.72 150.65 137.69zm35.39 -310.21l-23.43 20.14 49.04 57.04c21.22,24.68 38.93,43.95 59,63.3l-0.48 0.77c-21.33,-10.19 -46.05,-19.91 -71.15,-27.84l-105.37 -33.97 -27.58 23.72 133.06 154.75 23.43 -20.14 -49.74 -57.85c-23.31,-27.1 -40.97,-46.76 -59.16,-65.26l0.7 -0.95c22.63,10.82 48.36,20.37 72.85,28.49l106.28 34.59 25.61 -22.02 -133.06 -154.76zm149.75 -92.44c-10.45,1.45 -26.35,6.17 -43.96,17.75 -36.67,24.11 -46.75,59.75 -29.04,86.69 15.22,23.16 43.9,26.3 78.14,18.46 27.52,-5.97 42.78,-3.26 52.29,11.22 10.1,15.36 4.68,33.91 -17.28,48.35 -15.2,9.99 -33.08,15.38 -46.63,16.31l7.93 25.72c12.59,-0.31 34,-7.69 51.37,-19.11 41.5,-27.28 50.37,-63.72 31.63,-92.22 -15.37,-23.38 -39.41,-28.94 -76.99,-21.45 -29.55,6.04 -44.61,5.73 -54.12,-8.74 -7.17,-10.91 -5.76,-28.74 16.19,-43.17 15.2,-9.99 29.71,-13.15 37.79,-14l-7.3 -25.81zm164.67 -92.76l-135.95 69.61 12.02 23.48 52.94 -27.11 80.99 158.19 29.81 -15.26 -80.99 -158.19 53.2 -27.24 -12.02 -23.48zm109.58 177.71l31.02 -12.63 -77 -189.01 -31.02 12.64 77 189.01zm133.31 -259.41l-146.26 44 7.6 25.26 56.96 -17.13 51.19 170.19 32.07 -9.65 -51.19 -170.18 57.23 -17.21 -7.59 -25.26zm192.49 -35.58l-32.97 5.87 21.64 121.63c7.11,39.96 -6.87,60.31 -34.16,65.17 -25.02,4.45 -45.96,-9.42 -53.11,-49.64l-21.64 -121.63 -32.97 5.87 21.31 119.8c10.66,59.9 45.08,78.67 89.71,70.73 46.34,-8.24 73.98,-39.14 63.37,-98.78l-21.17 -119.01zm197.58 -9.61l-152.64 5.28 0.91 26.36 59.44 -2.06 6.15 177.61 33.47 -1.16 -6.15 -177.61 59.73 -2.07 -0.91 -26.36zm145.31 186.82l-86.79 -4.48 3.49 -67.59 77.27 4 1.32 -25.55 -77.28 -3.99 3.05 -59.07 81.89 4.23 1.33 -25.81 -115.34 -5.96 -10.53 203.82 120.24 6.21 1.33 -25.81zm351.65 -97.35c-53.11,-19.56 -103.96,6.58 -126.15,66.84 -21.27,57.76 -1.95,109.73 50.89,129.19 50.39,18.56 101.57,-0.93 126.06,-67.44 20.25,-55.01 4.2,-108.33 -50.8,-128.59zm-9.83 23.35c37.12,13.67 40.65,57.56 27.2,94.06 -15.01,40.76 -46.5,68.63 -82.8,55.26 -35.77,-13.17 -41.66,-55.66 -27.39,-94.41 13.81,-37.5 44.78,-68.97 82.99,-54.91zm77.72 230.58l39.88 -80.15 67.72 33.7 11.4 -22.9 -67.72 -33.7 28.13 -56.54 72.89 36.28 11.52 -23.14 -102.88 -51.19 -90.92 182.72 29.98 14.92zm478.37 84.32l-116.63 -98.61 -17.03 20.14 45.42 38.4 -114.74 135.71 25.57 21.63 114.74 -135.71 45.64 38.59 17.03 -20.14zm-18.74 237.31l-60.63 -62.26 48.48 -47.22 53.98 55.43 18.32 -17.84 -53.98 -55.44 42.38 -41.26 57.21 58.74 18.52 -18.03 -80.58 -82.74 -146.21 142.39 84 86.26 18.52 -18.03zm101.97 132.64c-9.01,-5.27 -20.3,-16.01 -29.03,-28.22 -26.54,-37.1 -20.25,-76.39 20.48,-105.54 43.13,-30.85 83.28,-20.52 108.14,14.23 9.57,13.39 14.31,25.97 16.44,35.81l24.79 -8.86c-1.14,-6.64 -6.1,-22.26 -20.88,-42.93 -35.61,-49.78 -93.94,-66.28 -150.28,-25.97 -52.87,37.83 -59.41,93.26 -23.62,143.28 13.94,19.49 28.33,32.27 37.17,37.31l16.79 -19.11zm246.38 80.26l-16.48 -29.16 -73.29 41.44 -44.34 -78.41 73.29 -41.44 -16.48 -29.15 -177.66 100.45 16.49 29.16 80.71 -45.64 44.34 78.41 -80.71 45.64 16.48 29.15 177.66 -100.45zm84.73 205.23l-11.69 -28.6 -69.64 28.44c-30.13,12.31 -54.02,23 -78.73,35.91l-0.57 -0.7c16.42,-17 33.47,-37.37 48.95,-58.67l65.6 -89.17 -13.76 -33.68 -188.94 77.18 11.69 28.6 70.62 -28.85c33.09,-13.52 57.33,-24.04 80.65,-35.44l0.68 0.96c-17.43,18.04 -34.65,39.42 -50.1,60.08l-66.48 89.84 12.77 31.27 188.94 -77.18zm41.45 158.64c-10.28,-55.65 -58.7,-86.05 -121.84,-74.39 -60.52,11.18 -95.37,54.31 -85.15,109.68 9.75,52.81 52.62,86.88 122.31,74.01 57.64,-10.64 95.31,-51.66 84.67,-109.3zm-25.1 3.46c7.18,38.9 -28.76,64.33 -67.02,71.39 -42.71,7.89 -82.74,-4.98 -89.77,-43.03 -6.92,-37.48 26.62,-64.22 67.23,-71.72 39.3,-7.26 82.17,3.33 89.56,43.36zm-121.28 266.26l-8.57 -84.74 177.08 -17.91 -3.37 -33.32 -203.06 20.53 11.94 118.07 25.98 -2.63zm178.51 115.86c2.22,-56.55 -38.32,-96.86 -102.48,-99.38 -61.5,-2.42 -104.98,31.99 -107.2,88.25 -2.11,53.66 32.21,96.33 103.03,99.12 58.57,2.3 104.35,-29.42 106.65,-87.98zm-25.25 -2.15c-1.56,39.53 -42.21,56.42 -81.08,54.89 -43.4,-1.7 -79.62,-23.07 -78.1,-61.72 1.5,-38.08 40.1,-56.8 81.36,-55.17 39.94,1.57 79.42,21.33 77.82,62zm-109.95 288.62l13.05 -69.23 -24.35 -4.59 -7.06 37.45 -56.56 -10.66c-1.44,-5.27 -1.41,-15.54 1.27,-29.73 8.02,-42.56 40.34,-67.32 90.87,-57.8 50.8,9.57 70.67,46.52 62.28,91.07 -3.74,19.86 -9.61,32.27 -15.72,41.7l23.48 12.06c7.01,-9.84 13.89,-27.65 17.9,-48.93 12.24,-64.97 -17.79,-118.52 -82.72,-130.76 -31.94,-6.02 -103.05,-7.08 -120.75,86.83 -4.87,25.82 -3.6,50.74 -1.44,63.78l99.75 18.8zm44.74 175.47l-42.89 -40.89c-12.35,-11.41 -23.34,-21.8 -34.72,-31.09l0.17 -0.55c15.5,-1.22 29.6,-3.47 45.99,-5.93l58.69 -8.92 11.26 -36.11 -132.65 26.69 -81.52 -25.42 -9.97 31.98 82.29 25.66 92.19 100.42 11.17 -35.83z"/>
   </g>
  </g>
 </g>
</svg>
